<svg width="169" height="38" viewBox="0 0 169 38" fill="none" xmlns="http://www.w3.org/2000/svg">
<g clip-path="url(#clip0_8_25)">
<path d="M16.334 37.7801V25.2378H17.476V37.7801H16.334Z" fill="white"/>
<path d="M29.0074 37.9983C26.8702 37.9983 25.2673 37.4624 24.1986 36.3907C23.13 35.319 22.5957 33.6912 22.5957 31.5073C22.5957 30.0955 22.8396 28.9073 23.3274 27.9428C23.793 27.0018 24.5607 26.2347 25.5139 25.7578C26.4828 25.2646 27.6798 25.018 29.105 25.018C29.9173 25.0068 30.7274 25.1023 31.5136 25.3017C32.1639 25.4645 32.7753 25.7498 33.3133 26.1416C33.8034 26.51 34.1928 26.9906 34.447 27.5409C34.7213 28.1619 34.8555 28.8332 34.8406 29.5093H33.5286C33.5464 28.9573 33.4311 28.409 33.1922 27.9083C32.9786 27.4897 32.659 27.1312 32.2637 26.8667C31.8371 26.5909 31.3595 26.3987 30.8576 26.3007C30.2815 26.1813 29.6939 26.123 29.105 26.1269C28.3839 26.1187 27.6657 26.2154 26.9739 26.4139C26.3666 26.5893 25.8109 26.9031 25.3525 27.3293C24.8819 27.7811 24.5279 28.3354 24.3197 28.9467C24.0658 29.714 23.9458 30.5175 23.9648 31.3236V31.7074C23.9648 32.9508 24.1644 33.9537 24.5636 34.7159C24.9264 35.441 25.5315 36.0242 26.2793 36.3694C27.1136 36.7295 28.0196 36.9043 28.9317 36.8812C30.0531 36.8812 30.9501 36.7319 31.6229 36.4334C32.2633 36.1612 32.7799 35.6707 33.0762 35.0538C33.3755 34.4326 33.5252 33.6464 33.5252 32.6949V32.3849H28.6693V31.2875H34.8372V37.7785H33.791L33.6228 36.0593C33.3242 36.5218 32.9157 36.9072 32.4319 37.183C31.9289 37.4732 31.3815 37.6831 30.8105 37.8047C30.2186 37.9338 29.6139 37.9987 29.0074 37.9983Z" fill="white"/>
<path d="M41.0059 37.7801V25.2378H42.5196V37.7801H41.0059Z" fill="white"/>
<path d="M51.8874 37.7801V26.6994H47.4453V25.2378H58.0738V26.6994H53.6131V37.7801H51.8874Z" fill="white"/>
<path d="M60.4492 37.7801L65.5103 25.2378H68.0232L73.1045 37.7801H71.0037L69.8044 34.7799H63.6181L62.4407 37.7785L60.4492 37.7801ZM64.2555 33.1723H69.1669L67.6666 29.3502C67.6161 29.2403 67.5573 29.091 67.4883 28.9024L67.2545 28.2627C67.1671 28.0248 67.0863 27.7853 67.0022 27.5409C66.9181 27.2965 66.834 27.0717 66.7667 26.8634H66.6541L66.3547 27.7049L66.0183 28.6285C65.9117 28.927 65.8209 29.1676 65.7458 29.3502L64.2555 33.1723Z" fill="white"/>
<path d="M77.5859 37.7801V25.2378H79.7422V35.9511H86.1724V37.7801H77.5859Z" fill="white"/>
<path d="M90.8223 37.7802V25.2378H93.2225V30.3509H99.2776V25.2329H101.678V37.7752H99.2776V32.362H93.2225V37.7752L90.8223 37.7802Z" fill="white"/>
<path d="M113.115 37.9982C111.77 37.9982 110.604 37.7636 109.618 37.2944C108.645 36.8333 107.853 36.0762 107.359 35.1373C106.835 34.1684 106.572 32.9584 106.572 31.5072C106.572 30.0341 106.835 28.8186 107.359 27.8606C107.859 26.9321 108.65 26.1845 109.618 25.7281C110.599 25.259 111.765 25.0244 113.115 25.0244C114.49 25.0244 115.667 25.259 116.647 25.7281C117.612 26.1863 118.4 26.9336 118.898 27.8606C119.423 28.8164 119.685 30.0319 119.685 31.5072C119.685 32.9595 119.423 34.1695 118.898 35.1373C118.406 36.0746 117.617 36.8314 116.647 37.2944C115.668 37.7636 114.491 37.9982 113.115 37.9982ZM113.115 35.8657C113.677 35.8756 114.236 35.7861 114.765 35.6016C115.223 35.4354 115.634 35.1655 115.964 34.8142C116.303 34.4448 116.555 34.0083 116.705 33.5347C116.883 32.9634 116.969 32.3684 116.959 31.7713V31.2792C116.968 30.6783 116.883 30.0796 116.705 29.5043C116.557 29.0277 116.304 28.5883 115.964 28.2166C115.634 27.8653 115.223 27.5954 114.765 27.4292C113.695 27.077 112.536 27.077 111.465 27.4292C111.009 27.5939 110.6 27.8641 110.274 28.2166C109.941 28.5895 109.694 29.029 109.553 29.5043C109.381 30.0807 109.299 30.679 109.309 31.2792V31.7713C109.298 32.3677 109.38 32.9623 109.553 33.5347C109.695 34.0071 109.942 34.4437 110.274 34.8142C110.6 35.1667 111.009 35.4369 111.465 35.6016C111.995 35.7842 112.554 35.8715 113.115 35.8591V35.8657Z" fill="white"/>
<path d="M130.249 37.9985C129.049 37.9985 128.021 37.8158 127.166 37.4506C126.344 37.1151 125.654 36.5323 125.196 35.7872C124.74 35.0447 124.512 34.1184 124.512 33.0084V25.2183H127.477V32.928C127.477 33.7942 127.715 34.4678 128.19 34.949C128.666 35.4302 129.347 35.6708 130.234 35.6708C131.131 35.6708 131.822 35.4302 132.306 34.949C132.79 34.4678 133.031 33.7942 133.028 32.928V25.2183H136.008V33.0084C136.008 34.1173 135.777 35.0436 135.313 35.7872C134.85 36.5306 134.159 37.1126 133.337 37.4506C132.479 37.8169 131.45 37.9995 130.249 37.9985Z" fill="white"/>
<path d="M146.727 37.9985C145.959 38.0032 145.193 37.9328 144.439 37.7885C143.776 37.6661 143.139 37.4342 142.555 37.1028C142.025 36.7996 141.583 36.3686 141.272 35.8512C140.942 35.267 140.78 34.6068 140.803 33.9402V33.7761C140.801 33.7268 140.808 33.6776 140.821 33.6301H144.066C144.065 33.6757 144.062 33.7211 144.056 33.7663C144.05 33.812 144.046 33.858 144.046 33.9041C144.029 34.244 144.139 34.5784 144.355 34.8457C144.587 35.0982 144.891 35.2766 145.228 35.3575C145.656 35.4704 146.097 35.5256 146.54 35.5215C146.797 35.5221 147.053 35.5095 147.309 35.4838C147.525 35.4633 147.739 35.4204 147.946 35.3558C148.124 35.3018 148.294 35.2251 148.451 35.1278C148.584 35.0467 148.694 34.9338 148.77 34.7997C148.841 34.6606 148.876 34.5071 148.873 34.3519C148.875 34.2189 148.846 34.0872 148.787 33.967C148.729 33.8467 148.643 33.741 148.537 33.658C148.275 33.452 147.976 33.2966 147.655 33.2004C147.286 33.079 146.871 32.9631 146.409 32.8526C145.946 32.7427 145.465 32.6279 144.966 32.5049C144.474 32.386 143.991 32.2336 143.521 32.0488C143.074 31.8744 142.655 31.6403 142.275 31.3533C141.904 31.0712 141.603 30.712 141.393 30.3018C141 29.5422 140.915 28.6661 141.155 27.8481C141.395 27.03 141.942 26.3301 142.687 25.8876C143.228 25.5691 143.82 25.3433 144.439 25.2199C145.136 25.076 145.846 25.0056 146.559 25.01C147.256 25.0054 147.951 25.0786 148.631 25.2281C149.238 25.361 149.817 25.5928 150.345 25.9138C150.848 26.2105 151.262 26.6313 151.545 27.1339C151.828 27.6365 151.971 28.203 151.958 28.7763V28.9944H148.733V28.8665C148.738 28.602 148.656 28.343 148.5 28.1267C148.319 27.8956 148.075 27.7184 147.797 27.6149C147.426 27.477 147.031 27.4118 146.634 27.423C146.238 27.4147 145.842 27.4577 145.457 27.5509C145.186 27.6119 144.934 27.7376 144.725 27.9167C144.645 27.9886 144.581 28.0761 144.538 28.1736C144.494 28.271 144.472 28.3764 144.473 28.4826C144.472 28.6102 144.502 28.7361 144.56 28.8502C144.619 28.9642 144.704 29.0631 144.809 29.1388C145.077 29.3345 145.379 29.4827 145.699 29.5768C146.075 29.6982 146.494 29.8108 146.956 29.9147C147.418 30.0197 147.896 30.128 148.39 30.2428C148.877 30.3575 149.356 30.5038 149.823 30.6808C150.272 30.8504 150.694 31.0783 151.08 31.3582C151.45 31.6276 151.755 31.9738 151.971 32.372C152.205 32.8255 152.32 33.3279 152.308 33.8352C152.308 34.8336 152.067 35.638 151.586 36.2482C151.076 36.8776 150.383 37.3428 149.598 37.5835C148.671 37.8754 147.701 38.0156 146.727 37.9985Z" fill="white"/>
<path d="M157.113 37.7803V25.2002H168.119V28.0889H161.014V30.0098H167.37V32.7886H161.014V34.8916H168.246V37.7803H157.113Z" fill="white"/>
<path d="M6.14872 37.7652H0.25V25.2393H6.14872C7.49773 25.2406 8.79111 25.7638 9.74501 26.6941C10.6989 27.6244 11.2354 28.8858 11.2367 30.2014V32.8113C11.2332 34.1255 10.6957 35.3848 9.74204 36.3133C8.78838 37.2418 7.49628 37.7639 6.14872 37.7652ZM1.27097 36.7711H6.14872C7.22595 36.7698 8.2588 36.3525 9.0213 35.6104C9.78381 34.8683 10.2139 33.8618 10.2174 32.8113V30.2014C10.2161 29.1494 9.78701 28.1409 9.02427 27.397C8.26153 26.6531 7.2274 26.2346 6.14872 26.2333H1.27097V36.7711Z" fill="white"/>
</g>
<path d="M30.5852 18V4.90909H35.0085C36.0355 4.90909 36.875 5.09446 37.527 5.4652C38.1832 5.83168 38.669 6.32812 38.9844 6.95455C39.2997 7.58097 39.4574 8.27983 39.4574 9.05114C39.4574 9.82244 39.2997 10.5234 38.9844 11.1541C38.6733 11.7848 38.1918 12.2876 37.5398 12.6626C36.8878 13.0334 36.0526 13.2188 35.0341 13.2188H31.8636V11.8125H34.983C35.6861 11.8125 36.2507 11.6911 36.6768 11.4482C37.103 11.2053 37.4119 10.8771 37.6037 10.4638C37.7997 10.0462 37.8977 9.57528 37.8977 9.05114C37.8977 8.52699 37.7997 8.05824 37.6037 7.64489C37.4119 7.23153 37.1009 6.90767 36.6705 6.6733C36.2401 6.43466 35.669 6.31534 34.9574 6.31534H32.1705V18H30.5852ZM42.011 18V4.90909H46.4343C47.457 4.90909 48.2965 5.08381 48.9528 5.43324C49.609 5.77841 50.0948 6.25355 50.4102 6.85866C50.7255 7.46378 50.8832 8.15199 50.8832 8.9233C50.8832 9.6946 50.7255 10.3786 50.4102 10.9751C50.0948 11.5717 49.6112 12.0405 48.9592 12.3814C48.3072 12.718 47.4741 12.8864 46.4599 12.8864H42.8803V11.4545H46.4087C47.1076 11.4545 47.6701 11.3523 48.0962 11.1477C48.5266 10.9432 48.8377 10.6534 49.0295 10.2784C49.2255 9.89915 49.3235 9.44744 49.3235 8.9233C49.3235 8.39915 49.2255 7.94105 49.0295 7.54901C48.8335 7.15696 48.5202 6.8544 48.0898 6.64134C47.6594 6.42401 47.0906 6.31534 46.3832 6.31534H43.5962V18H42.011ZM48.1729 12.1193L51.3945 18H49.5536L46.3832 12.1193H48.1729ZM64.5701 11.4545C64.5701 12.8352 64.3208 14.0284 63.8223 15.0341C63.3237 16.0398 62.6397 16.8153 61.7704 17.3608C60.9011 17.9062 59.9082 18.179 58.7917 18.179C57.6752 18.179 56.6824 17.9062 55.813 17.3608C54.9437 16.8153 54.2598 16.0398 53.7612 15.0341C53.2626 14.0284 53.0133 12.8352 53.0133 11.4545C53.0133 10.0739 53.2626 8.88068 53.7612 7.875C54.2598 6.86932 54.9437 6.09375 55.813 5.5483C56.6824 5.00284 57.6752 4.73011 58.7917 4.73011C59.9082 4.73011 60.9011 5.00284 61.7704 5.5483C62.6397 6.09375 63.3237 6.86932 63.8223 7.875C64.3208 8.88068 64.5701 10.0739 64.5701 11.4545ZM63.036 11.4545C63.036 10.321 62.8464 9.36435 62.4672 8.58452C62.0922 7.80469 61.5829 7.21449 60.9395 6.81392C60.3002 6.41335 59.5843 6.21307 58.7917 6.21307C57.9991 6.21307 57.2811 6.41335 56.6376 6.81392C55.9984 7.21449 55.4892 7.80469 55.1099 8.58452C54.7349 9.36435 54.5474 10.321 54.5474 11.4545C54.5474 12.5881 54.7349 13.5447 55.1099 14.3246C55.4892 15.1044 55.9984 15.6946 56.6376 16.0952C57.2811 16.4957 57.9991 16.696 58.7917 16.696C59.5843 16.696 60.3002 16.4957 60.9395 16.0952C61.5829 15.6946 62.0922 15.1044 62.4672 14.3246C62.8464 13.5447 63.036 12.5881 63.036 11.4545ZM66.0467 4.90909H68.725L71.9274 10.7003H72.0552L75.2576 4.90909H77.9359L73.1738 13.1165V18H70.8088V13.1165L66.0467 4.90909ZM79.6154 18V4.90909H88.1296V6.89702H81.9869V10.451H87.6886V12.4389H81.9869V16.0121H88.1808V18H79.6154ZM89.9737 6.89702V4.90909H100.418V6.89702H96.3722V18H94.0199V6.89702H89.9737ZM113.549 11.4545C113.549 12.8651 113.285 14.0732 112.757 15.0788C112.232 16.0803 111.517 16.8473 110.609 17.38C109.705 17.9126 108.681 18.179 107.534 18.179C106.388 18.179 105.361 17.9126 104.453 17.38C103.55 16.843 102.834 16.0739 102.306 15.0724C101.781 14.0668 101.519 12.8608 101.519 11.4545C101.519 10.044 101.781 8.83807 102.306 7.83665C102.834 6.83097 103.55 6.06179 104.453 5.52912C105.361 4.99645 106.388 4.73011 107.534 4.73011C108.681 4.73011 109.705 4.99645 110.609 5.52912C111.517 6.06179 112.232 6.83097 112.757 7.83665C113.285 8.83807 113.549 10.044 113.549 11.4545ZM111.165 11.4545C111.165 10.4616 111.009 9.62429 110.698 8.94247C110.392 8.25639 109.965 7.73864 109.42 7.3892C108.874 7.03551 108.246 6.85866 107.534 6.85866C106.823 6.85866 106.194 7.03551 105.649 7.3892C105.103 7.73864 104.675 8.25639 104.364 8.94247C104.057 9.62429 103.904 10.4616 103.904 11.4545C103.904 12.4474 104.057 13.2869 104.364 13.973C104.675 14.6548 105.103 15.1726 105.649 15.5263C106.194 15.8757 106.823 16.0504 107.534 16.0504C108.246 16.0504 108.874 15.8757 109.42 15.5263C109.965 15.1726 110.392 14.6548 110.698 13.973C111.009 13.2869 111.165 12.4474 111.165 11.4545ZM122.906 8.50781C122.846 7.94957 122.594 7.51491 122.151 7.20384C121.712 6.89276 121.141 6.73722 120.438 6.73722C119.944 6.73722 119.52 6.81179 119.166 6.96094C118.813 7.11008 118.542 7.3125 118.354 7.56818C118.167 7.82386 118.071 8.11577 118.067 8.44389C118.067 8.71662 118.129 8.95312 118.252 9.15341C118.38 9.35369 118.553 9.52415 118.77 9.66477C118.987 9.80114 119.228 9.91619 119.492 10.0099C119.756 10.1037 120.023 10.1825 120.291 10.2464L121.518 10.5533C122.013 10.6683 122.488 10.8239 122.944 11.0199C123.404 11.2159 123.815 11.4631 124.178 11.7614C124.544 12.0597 124.834 12.4197 125.047 12.8416C125.26 13.2635 125.366 13.7578 125.366 14.3246C125.366 15.0916 125.17 15.767 124.778 16.3509C124.386 16.9304 123.82 17.3842 123.078 17.7124C122.341 18.0362 121.448 18.1982 120.4 18.1982C119.381 18.1982 118.497 18.0405 117.747 17.7251C117.001 17.4098 116.418 16.9496 115.996 16.3445C115.578 15.7393 115.352 15.0021 115.318 14.1328H117.651C117.685 14.5888 117.826 14.968 118.073 15.2706C118.32 15.5732 118.642 15.799 119.038 15.9482C119.439 16.0973 119.886 16.1719 120.381 16.1719C120.896 16.1719 121.348 16.0952 121.736 15.9418C122.128 15.7841 122.435 15.5668 122.656 15.2898C122.878 15.0085 122.991 14.6804 122.995 14.3054C122.991 13.9645 122.891 13.6832 122.695 13.4616C122.499 13.2358 122.224 13.0483 121.87 12.8991C121.521 12.7457 121.112 12.6094 120.643 12.4901L119.153 12.1065C118.075 11.8295 117.223 11.4098 116.597 10.8473C115.974 10.2805 115.663 9.52841 115.663 8.59091C115.663 7.8196 115.872 7.14418 116.29 6.56463C116.712 5.98509 117.285 5.53551 118.009 5.21591C118.734 4.89204 119.554 4.73011 120.47 4.73011C121.399 4.73011 122.213 4.89204 122.912 5.21591C123.615 5.53551 124.167 5.98082 124.567 6.55185C124.968 7.11861 125.175 7.7706 125.188 8.50781H122.906Z" fill="white"/>
<defs>
<clipPath id="clip0_8_25">
<rect width="169" height="13" fill="white" transform="translate(0 25)"/>
</clipPath>
</defs>
</svg>
